<svg xmlns="http://www.w3.org/2000/svg" width="1600" height="900" viewBox="0 0 1600 900" role="img" aria-label="Your Cover Photo Is the First Booking Filter">
<defs>
<linearGradient id="bg" x1="0" y1="0" x2="1" y2="1"><stop offset="0" stop-color="#2b2118"/><stop offset=".55" stop-color="#7b5435"/><stop offset="1" stop-color="#f1d8b8"/></linearGradient>
<radialGradient id="halo" cx="20%" cy="20%" r="75%"><stop offset="0" stop-color="#c98542" stop-opacity=".52"/><stop offset="1" stop-color="#c98542" stop-opacity="0"/></radialGradient>
<linearGradient id="photo0"><stop offset="0" stop-color="#dbc0a0"/><stop offset="1" stop-color="#7b614a"/></linearGradient>
<linearGradient id="photo1"><stop offset="0" stop-color="#fff1d8"/><stop offset="1" stop-color="#9e7044"/></linearGradient>
<linearGradient id="photo2"><stop offset="0" stop-color="#6d765e"/><stop offset="1" stop-color="#e5c39b"/></linearGradient>
<linearGradient id="photo3"><stop offset="0" stop-color="#332820"/><stop offset="1" stop-color="#c99862"/></linearGradient>
<filter id="shadow"><feDropShadow dx="0" dy="28" stdDeviation="34" flood-color="#17130f" flood-opacity=".34"/></filter>
<pattern id="grid" width="54" height="54" patternUnits="userSpaceOnUse"><path d="M54 0H0V54" fill="none" stroke="#fff7ea" stroke-opacity=".08"/></pattern>
</defs>
<rect width="1600" height="900" fill="url(#bg)"/>
<rect width="1600" height="900" fill="url(#halo)"/>
<rect width="1600" height="900" fill="url(#grid)"/>
<path d="M0 690 C260 590 390 760 650 625 C920 485 1110 550 1600 430 L1600 900 L0 900Z" fill="#17130f" opacity=".35"/>
<g filter="url(#shadow)"><rect x="58" y="70" width="1484" height="760" rx="58" fill="rgba(23,19,15,.62)" stroke="rgba(255,255,255,.14)"/>
<rect x="92" y="100" width="410" height="54" rx="27" fill="rgba(255,250,242,.12)"/>
<text x="118" y="137" font-family="Avenir Next, sans-serif" font-size="22" font-weight="900" letter-spacing="5" fill="#f2c38d">LISTING GLOW STUDIO · COVER PHOTO</text>
<text x="96" y="210" font-family="Georgia, serif" font-size="62" font-weight="700" fill="#fffaf2">Your Cover Photo Is the</text><text x="96" y="282" font-family="Georgia, serif" font-size="62" font-weight="700" fill="#fffaf2">First Booking Filter</text>
<text x="100" y="485" font-family="Avenir Next, sans-serif" font-size="30" font-weight="700" fill="#eadfce">The thumbnail decides whether guests ever read the rest of the listing.</text>
<rect x="96" y="590" width="330" height="86" rx="28" fill="#c98542" opacity=".95"/><text x="126" y="645" font-family="Georgia, serif" font-size="38" font-weight="700" fill="#fffaf2">COVER</text>
<text x="98" y="748" font-family="Avenir Next, sans-serif" font-size="24" font-weight="800" fill="#dbcdbb">Honest photos · sharper copy · clearer guest decision</text>
<g transform="translate(720,170)"><rect width="210" height="150" rx="24" fill="rgba(255,250,242,.88)"/><rect x="16" y="16" width="178" height="78" rx="16" fill="url(#photo0)"/><rect x="18" y="108" width="118" height="10" rx="5" fill="#17130f" opacity=".55"/><rect x="18" y="128" width="78" height="8" rx="4" fill="#c98542" opacity=".72"/><circle cx="172" cy="121" r="18" fill="#17130f" opacity=".88"/><text x="165" y="129" font-family="Georgia" font-size="18" fill="#fffaf2">1</text></g><g transform="translate(970,170)"><rect width="210" height="150" rx="24" fill="rgba(255,250,242,.88)"/><rect x="16" y="16" width="178" height="78" rx="16" fill="url(#photo1)"/><rect x="18" y="108" width="118" height="10" rx="5" fill="#17130f" opacity=".55"/><rect x="18" y="128" width="78" height="8" rx="4" fill="#c98542" opacity=".72"/><circle cx="172" cy="121" r="18" fill="#17130f" opacity=".88"/><text x="165" y="129" font-family="Georgia" font-size="18" fill="#fffaf2">2</text></g><g transform="translate(720,360)"><rect width="210" height="150" rx="24" fill="rgba(255,250,242,.88)"/><rect x="16" y="16" width="178" height="78" rx="16" fill="url(#photo2)"/><rect x="18" y="108" width="118" height="10" rx="5" fill="#17130f" opacity=".55"/><rect x="18" y="128" width="78" height="8" rx="4" fill="#c98542" opacity=".72"/><circle cx="172" cy="121" r="18" fill="#17130f" opacity=".88"/><text x="165" y="129" font-family="Georgia" font-size="18" fill="#fffaf2">3</text></g><g transform="translate(970,360)"><rect width="210" height="150" rx="24" fill="rgba(255,250,242,.88)"/><rect x="16" y="16" width="178" height="78" rx="16" fill="url(#photo3)"/><rect x="18" y="108" width="118" height="10" rx="5" fill="#17130f" opacity=".55"/><rect x="18" y="128" width="78" height="8" rx="4" fill="#c98542" opacity=".72"/><circle cx="172" cy="121" r="18" fill="#17130f" opacity=".88"/><text x="165" y="129" font-family="Georgia" font-size="18" fill="#fffaf2">4</text></g>
<rect x="1010" y="570" width="360" height="178" rx="32" fill="rgba(255,250,242,.12)" stroke="rgba(255,255,255,.18)"/><path d="M1050 605 l18 18 l36 -44" stroke="#c98542" stroke-width="10" fill="none" stroke-linecap="round" stroke-linejoin="round" opacity=".88"/><path d="M1050 639 l18 18 l36 -44" stroke="#c98542" stroke-width="10" fill="none" stroke-linecap="round" stroke-linejoin="round" opacity=".88"/><path d="M1050 673 l18 18 l36 -44" stroke="#c98542" stroke-width="10" fill="none" stroke-linecap="round" stroke-linejoin="round" opacity=".88"/>
</g></svg>